HIERARCHY
ROOT root
{
	OFFSET 0.000000 0.000000 0.000000
	CHANNELS 6 Xposition Yposition Zposition Zrotation Yrotation Xrotation
	JOINT lhip
	{
		OFFSET 0.058581 -0.082280 -0.017664
		CHANNELS 3 Zrotation Yrotation Xrotation
		JOINT lknee
		{
			OFFSET 0.043451 -0.386469 0.008037
			CHANNELS 3 Zrotation Yrotation Xrotation
			JOINT lankle
			{
				OFFSET -0.014790 -0.426874 -0.037428
				CHANNELS 3 Zrotation Yrotation Xrotation
				JOINT ltoe
				{
					OFFSET 0.041054 -0.060286 0.122042
					CHANNELS 3 Zrotation Yrotation Xrotation
					End Site
					{
						OFFSET 0.000000 0.000000 0.000000
					}
				}
			}
		}
	}
	JOINT rhip
	{
		OFFSET -0.060310 -0.090513 -0.013543
		CHANNELS 3 Zrotation Yrotation Xrotation
		JOINT rknee
		{
			OFFSET -0.043257 -0.383688 -0.004843
			CHANNELS 3 Zrotation Yrotation Xrotation
			JOINT rankle
			{
				OFFSET 0.019056 -0.420046 -0.034562
				CHANNELS 3 Zrotation Yrotation Xrotation
				JOINT rtoe
				{
					OFFSET -0.034840 -0.062106 0.130323
					CHANNELS 3 Zrotation Yrotation Xrotation
					End Site
					{
						OFFSET 0.000000 0.000000 0.000000
					}
				}
			}
		}
	}
	JOINT lowerback
	{
		OFFSET 0.004439 0.124404 -0.038385
		CHANNELS 3 Zrotation Yrotation Xrotation
		JOINT upperback
		{
			OFFSET 0.004488 0.137956 0.026820
			CHANNELS 3 Zrotation Yrotation Xrotation
			JOINT chest
			{
				OFFSET -0.002265 0.056032 0.002855
				CHANNELS 3 Zrotation Yrotation Xrotation
				JOINT lowerneck
				{
					OFFSET -0.013390 0.211636 -0.033468
					CHANNELS 3 Zrotation Yrotation Xrotation
					JOINT upperneck
					{
						OFFSET 0.010113 0.088937 0.050410
						CHANNELS 3 Zrotation Yrotation Xrotation
						End Site
						{
							OFFSET 0.000000 0.000000 0.000000
						}
					}
				}
				JOINT lclavicle
				{
					OFFSET 0.071702 0.114000 -0.018898
					CHANNELS 3 Zrotation Yrotation Xrotation
					JOINT lshoulder
					{
						OFFSET 0.122921 0.045205 -0.019046
						CHANNELS 3 Zrotation Yrotation Xrotation
						JOINT lelbow
						{
							OFFSET 0.255332 -0.015649 -0.022946
							CHANNELS 3 Zrotation Yrotation Xrotation
							JOINT lwrist
							{
								OFFSET 0.265709 0.012698 -0.007375
								CHANNELS 3 Zrotation Yrotation Xrotation
								End Site
								{
									OFFSET 0.000000 0.000000 0.000000
								}
							}
						}
					}
				}
				JOINT rclavicle
				{
					OFFSET -0.082954 0.112472 -0.023707
					CHANNELS 3 Zrotation Yrotation Xrotation
					JOINT rshoulder
					{
						OFFSET -0.113228 0.046853 -0.008472
						CHANNELS 3 Zrotation Yrotation Xrotation
						JOINT relbow
						{
							OFFSET -0.260127 -0.014369 -0.031269
							CHANNELS 3 Zrotation Yrotation Xrotation
							JOINT rwrist
							{
								OFFSET -0.269108 0.006794 -0.006027
								CHANNELS 3 Zrotation Yrotation Xrotation
								End Site
								{
									OFFSET 0.000000 0.000000 0.000000
								}
							}
						}
					}
				}
			}
		}
	}
}
MOTION
Frames: 8
Frame Time: 0.033333
-0.469088 1.322906 0.970993 32.894085 1.212216 90.329520 8.106455 0.402554 -28.056256 -1.552194 11.631602 58.220906 0.653386 5.471017 -26.125542 0.000000 -0.000000 0.000000 1.000733 2.093751 -35.062612 -1.111388 -11.387189 35.334099 0.397504 -4.937006 -8.728935 0.000000 -0.000000 0.000000 0.651007 -3.030770 37.661133 0.589197 -4.951490 15.930730 0.663892 -1.599895 -1.235758 -2.935544 -1.228044 5.178927 5.119527 8.240653 0.036900 -27.512099 -16.556427 3.587403 -53.420304 -12.470289 6.588621 75.802124 -71.525526 -49.194485 13.221695 -8.619575 -1.096217 22.534655 23.588088 7.333509 53.264693 18.054824 11.455995 -80.413508 71.798728 -54.647149 -4.916900 10.929054 -2.000565 
-0.466383 1.313882 0.971549 33.052818 1.155302 90.405217 7.869032 0.660393 -29.049882 -2.533049 11.928305 50.887413 0.591665 4.981460 -27.850755 0.000000 -0.000000 0.000000 1.130426 1.854975 -34.719167 -1.234039 -11.587530 35.888869 0.774109 -4.808799 -10.335737 0.000000 -0.000000 0.000000 0.724199 -2.936071 38.235735 0.484448 -5.117426 15.746979 0.775260 -1.525055 -1.327081 -2.929353 -1.191408 5.264006 5.270343 8.074402 -0.040734 -27.498870 -16.777663 3.349265 -53.577538 -12.436827 6.545864 76.160113 -71.212763 -49.594438 13.264957 -8.851516 -0.957296 22.311748 23.788086 7.286391 53.257932 18.054846 11.172369 -80.467475 71.492135 -54.915033 -5.012236 11.100919 -1.714610 
-0.463178 1.306074 0.972055 33.035643 1.092132 90.504506 7.436154 0.860496 -29.295473 -3.696767 11.570723 43.643552 0.257655 4.598011 -27.751905 0.000000 -0.000000 0.000000 1.235738 1.757563 -34.468536 -1.357139 -11.625908 36.428816 0.987218 -4.671109 -11.725174 0.000000 -0.000000 0.000000 0.747107 -2.906649 38.531734 0.358207 -5.141106 15.690489 0.841479 -1.462422 -1.340424 -2.923429 -0.991373 5.228745 5.315188 7.827294 0.088184 -27.499665 -16.840472 3.076246 -53.767616 -12.312239 6.670308 76.466365 -70.977391 -49.922249 13.292331 -8.983406 -0.883639 22.163914 23.830196 7.192276 53.271328 18.084354 10.989795 -80.323839 71.362409 -54.920350 -5.002550 11.277252 -1.376632 
-0.459401 1.298950 0.972023 32.753197 1.188183 90.540392 7.103317 1.218721 -29.066527 -4.066456 11.417318 38.706376 -0.200587 4.477275 -25.790834 0.000000 -0.000000 0.000000 1.439749 1.983514 -34.321717 -1.513382 -11.677991 37.163948 0.785439 -4.583483 -12.862236 0.000000 -0.000000 0.000000 0.794071 -3.015017 38.571416 0.227212 -4.969555 15.875182 0.825426 -1.371759 -1.461699 -3.044559 -0.742346 5.289369 5.212829 7.688839 0.224176 -27.503359 -16.779544 2.885836 -54.035241 -12.021479 6.885945 77.161292 -70.792421 -50.656791 13.454747 -8.984892 -0.905964 22.077793 23.926380 7.183559 53.316162 18.003336 10.899155 -80.350971 71.321445 -55.129013 -5.085386 11.408188 -1.254099 
-0.454944 1.292411 0.971037 32.404596 1.343817 90.476326 6.891491 1.341077 -28.508323 -3.873870 11.516324 36.354251 -0.164360 4.248632 -22.170444 0.000000 -0.000000 0.000000 1.635727 2.339700 -34.175972 -1.627963 -11.638271 38.069070 0.176949 -4.693733 -13.705817 0.000000 -0.000000 0.000000 0.833360 -3.215931 38.419314 0.174615 -4.750750 16.269237 0.751442 -1.327811 -1.578976 -3.181778 -0.510495 5.235032 4.952387 7.657039 0.452759 -27.546559 -16.512863 2.815318 -54.328564 -11.843261 7.135745 77.980135 -70.680454 -51.455423 13.729593 -8.981781 -0.952915 22.121024 23.952012 7.190621 53.285166 17.988755 10.999914 -80.565229 71.341891 -55.520763 -5.084042 11.495131 -1.258327 
-0.449952 1.286509 0.969820 32.012184 1.429551 90.369763 6.553128 0.974935 -27.559624 -3.249921 11.503380 35.674048 1.521891 5.207457 -21.208679 0.000000 -0.000000 0.000000 1.759727 2.752039 -34.094171 -1.663323 -11.325384 39.041230 -0.267309 -5.162810 -14.569464 0.000000 -0.000000 0.000000 0.799813 -3.388562 38.336031 0.124511 -4.517071 16.429398 0.733506 -1.352033 -1.491705 -3.276571 -0.539310 4.986584 4.673481 7.806009 0.642610 -27.616340 -16.152602 2.900358 -54.610608 -11.898794 7.222271 78.778342 -70.721028 -52.158817 14.162103 -8.971281 -1.013643 22.175835 23.871618 7.112640 53.320970 17.989405 11.320124 -80.589125 71.313777 -55.731827 -5.071443 11.616359 -1.009603 
-0.444912 1.281381 0.968918 31.599744 1.459280 90.283767 6.177602 0.401896 -26.484523 -2.408164 11.314960 35.251306 2.434211 5.724648 -22.068188 0.000000 -0.000000 0.000000 1.878614 3.200712 -33.934258 -1.778270 -10.893672 39.794954 -0.383842 -5.616840 -15.214208 0.000000 -0.000000 0.000000 0.736367 -3.456829 38.432869 0.046609 -4.362145 16.594485 0.756346 -1.399668 -1.629446 -3.330788 -0.669041 4.878544 4.560313 8.081152 0.550365 -27.720742 -15.952797 3.017685 -54.851508 -11.784486 7.245141 79.928091 -70.654033 -53.220413 14.210119 -9.019420 -1.020754 22.312176 23.934823 7.115402 53.447833 17.796119 11.625423 -80.880503 71.146403 -56.178817 -4.971181 11.721385 -0.631398 
-0.440110 1.277250 0.968497 31.209555 1.444331 90.351423 5.774539 -0.069014 -25.570022 -2.031502 11.063582 34.182278 3.295036 6.928684 -22.824868 0.000000 -0.000000 0.000000 1.887517 3.612902 -33.906959 -1.769824 -10.449655 40.317711 -0.512509 -6.004855 -15.400442 0.000000 -0.000000 0.000000 0.631917 -3.528478 38.520636 -0.032241 -4.229304 16.601988 0.756489 -1.405888 -1.668150 -3.342259 -0.740726 4.719115 4.522336 8.257831 0.564835 -27.760336 -15.853049 3.080125 -55.058416 -11.803588 7.302239 80.475166 -70.558521 -53.730313 14.530920 -8.970288 -1.061847 22.381909 24.019625 7.124286 53.736374 17.672689 11.910610 -80.952461 70.872429 -56.250365 -4.930989 11.745276 -0.402595 
